<?xml version="1.0" encoding="UTF-8"?><svg id="Layer_1" xmlns="http://www.w3.org/2000/svg" xmlns:xlink="http://www.w3.org/1999/xlink" viewBox="0 0 491.01 489.92"><defs><style>.cls-1{clip-path:url(#clippath-2);}.cls-2{fill:#232323;}.cls-3{clip-path:url(#clippath-1);}.cls-4{clip-path:url(#clippath);}.cls-5{fill:none;}.cls-6{fill:#38b2ac;}</style><clipPath id="clippath"><rect class="cls-5" x="17.01" y="15.92" width="474" height="474"/></clipPath><clipPath id="clippath-1"><rect class="cls-5" width="474" height="474"/></clipPath><clipPath id="clippath-2"><rect class="cls-5" x="92.03" y="88.46" width="290" height="293"/></clipPath></defs><g class="cls-4"><path class="cls-2" d="M118.13,15.92H389.9c1.66,0,3.31,.04,4.96,.12s3.3,.2,4.95,.36,3.29,.36,4.93,.61c1.64,.24,3.27,.53,4.89,.85,1.62,.32,3.23,.68,4.84,1.08,1.61,.41,3.2,.84,4.79,1.33,1.58,.48,3.15,.99,4.71,1.55,1.56,.56,3.1,1.16,4.63,1.79,1.53,.64,3.04,1.31,4.54,2.01,1.49,.71,2.97,1.45,4.43,2.23s2.9,1.59,4.32,2.45c1.42,.85,2.82,1.73,4.19,2.65,1.38,.92,2.73,1.88,4.06,2.86s2.64,2.01,3.91,3.05c1.28,1.05,2.53,2.13,3.76,3.24,1.22,1.11,2.42,2.25,3.59,3.42s2.31,2.36,3.42,3.59c1.11,1.22,2.19,2.48,3.24,3.76,1.05,1.28,2.07,2.58,3.05,3.92,.99,1.33,1.94,2.68,2.86,4.06,.92,1.38,1.81,2.77,2.66,4.19,.85,1.42,1.67,2.85,2.45,4.32,.78,1.46,1.52,2.94,2.23,4.43s1.38,3.01,2.01,4.54c.64,1.53,1.23,3.07,1.79,4.63s1.08,3.13,1.56,4.71,.92,3.18,1.32,4.78,.77,3.22,1.09,4.84c.32,1.62,.6,3.25,.85,4.89,.24,1.64,.44,3.28,.6,4.92,.17,1.65,.29,3.3,.37,4.95,.08,1.65,.12,3.3,.12,4.96V388.8c0,1.66-.04,3.31-.12,4.96-.08,1.65-.2,3.3-.37,4.95-.16,1.65-.36,3.29-.6,4.92-.24,1.64-.53,3.27-.85,4.89-.32,1.63-.69,3.24-1.09,4.84s-.84,3.2-1.32,4.78-1,3.16-1.56,4.71-1.15,3.1-1.79,4.63c-.63,1.53-1.3,3.04-2.01,4.54-.71,1.5-1.45,2.97-2.23,4.43-.78,1.46-1.6,2.9-2.45,4.32-.85,1.42-1.73,2.81-2.66,4.19-.92,1.38-1.87,2.72-2.86,4.06-.98,1.33-2,2.63-3.05,3.91-1.05,1.28-2.13,2.53-3.24,3.76-1.11,1.23-2.26,2.43-3.42,3.59s-2.37,2.31-3.59,3.42c-1.23,1.11-2.48,2.19-3.76,3.24-1.28,1.05-2.58,2.07-3.91,3.05s-2.68,1.94-4.06,2.86c-1.38,.92-2.78,1.8-4.19,2.66-1.42,.85-2.86,1.66-4.32,2.44s-2.94,1.53-4.43,2.23c-1.5,.7-3.01,1.38-4.54,2.01-1.53,.63-3.07,1.23-4.63,1.79-1.56,.56-3.13,1.07-4.71,1.56-1.58,.48-3.18,.92-4.79,1.32-1.6,.4-3.22,.77-4.84,1.09-1.63,.32-3.26,.6-4.89,.84-1.64,.24-3.28,.45-4.93,.61s-3.3,.29-4.95,.36c-1.65,.08-3.31,.13-4.96,.13H118.13c-1.66,0-3.31-.04-4.96-.13-1.65-.08-3.3-.2-4.95-.36s-3.29-.36-4.93-.61c-1.64-.24-3.27-.52-4.89-.84-1.62-.32-3.23-.69-4.84-1.09-1.6-.4-3.2-.84-4.78-1.32-1.58-.48-3.16-1-4.71-1.56s-3.1-1.16-4.63-1.79c-1.53-.64-3.04-1.31-4.54-2.01-1.49-.71-2.97-1.45-4.43-2.23s-2.9-1.59-4.32-2.44c-1.42-.85-2.82-1.74-4.19-2.66-1.38-.92-2.73-1.88-4.06-2.86s-2.64-2.01-3.91-3.05c-1.28-1.05-2.53-2.13-3.76-3.24-1.22-1.11-2.42-2.25-3.59-3.42-1.17-1.17-2.31-2.36-3.42-3.59-1.11-1.22-2.19-2.48-3.24-3.76-1.05-1.28-2.07-2.58-3.06-3.91-.98-1.33-1.94-2.68-2.85-4.06-.92-1.38-1.81-2.78-2.66-4.19-.85-1.42-1.67-2.86-2.45-4.32-.78-1.46-1.52-2.93-2.23-4.43-.71-1.49-1.38-3.01-2.01-4.54-.64-1.53-1.23-3.07-1.79-4.63s-1.08-3.13-1.56-4.71-.92-3.18-1.32-4.78-.77-3.22-1.09-4.84c-.32-1.62-.6-3.25-.85-4.89-.24-1.64-.44-3.28-.61-4.92-.16-1.65-.28-3.3-.36-4.95-.08-1.66-.12-3.31-.12-4.96V117.03c0-1.66,.04-3.31,.12-4.96,.08-1.66,.2-3.3,.36-4.95,.17-1.65,.36-3.29,.61-4.92,.24-1.64,.53-3.27,.85-4.89,.32-1.63,.69-3.24,1.09-4.84s.84-3.2,1.32-4.78,1-3.16,1.56-4.71,1.15-3.1,1.79-4.63c.63-1.53,1.3-3.04,2.01-4.54s1.45-2.97,2.23-4.43c.78-1.46,1.6-2.9,2.45-4.32,.85-1.42,1.73-2.82,2.66-4.19,.92-1.38,1.87-2.73,2.85-4.06,.99-1.33,2.01-2.64,3.06-3.92,1.05-1.28,2.13-2.53,3.24-3.76,1.11-1.23,2.25-2.43,3.42-3.59,1.17-1.17,2.37-2.31,3.59-3.42,1.23-1.11,2.48-2.19,3.76-3.24,1.28-1.05,2.58-2.07,3.91-3.05s2.68-1.94,4.06-2.86c1.38-.92,2.77-1.8,4.19-2.65,1.42-.85,2.86-1.67,4.32-2.45s2.94-1.53,4.43-2.23c1.49-.7,3.01-1.38,4.54-2.01,1.53-.63,3.07-1.23,4.63-1.79s3.13-1.07,4.71-1.55c1.58-.48,3.18-.92,4.78-1.33,1.61-.4,3.22-.76,4.84-1.08,1.63-.32,3.26-.61,4.89-.85,1.64-.24,3.28-.45,4.93-.61s3.3-.28,4.95-.36,3.31-.12,4.96-.12Z"/></g><g class="cls-3"><path class="cls-6" d="M101.11,0H372.89c1.66,0,3.31,.04,4.96,.13,1.65,.08,3.3,.2,4.95,.36,1.65,.16,3.29,.36,4.93,.6,1.64,.24,3.27,.53,4.89,.85,1.62,.32,3.23,.69,4.84,1.09,1.61,.4,3.2,.84,4.79,1.32,1.58,.48,3.15,1,4.71,1.56,1.56,.56,3.1,1.16,4.63,1.79,1.53,.64,3.04,1.3,4.54,2.01s2.97,1.45,4.43,2.23c1.46,.78,2.9,1.59,4.32,2.44,1.42,.85,2.82,1.74,4.19,2.66,1.38,.92,2.73,1.88,4.06,2.86s2.64,2.01,3.91,3.05c1.28,1.05,2.53,2.13,3.76,3.24,1.22,1.11,2.42,2.26,3.59,3.42,1.17,1.17,2.31,2.37,3.42,3.6,1.11,1.22,2.19,2.48,3.24,3.76,1.05,1.28,2.07,2.58,3.06,3.91,.98,1.33,1.94,2.68,2.85,4.06,.92,1.38,1.81,2.78,2.66,4.19,.85,1.42,1.67,2.86,2.45,4.32,.78,1.46,1.52,2.94,2.23,4.44,.71,1.49,1.38,3.01,2.01,4.54,.64,1.53,1.23,3.07,1.79,4.63s1.08,3.13,1.56,4.71c.48,1.58,.92,3.18,1.32,4.78s.77,3.22,1.09,4.84c.32,1.62,.6,3.25,.85,4.89,.24,1.64,.44,3.28,.61,4.93,.16,1.65,.28,3.3,.36,4.95,.08,1.66,.12,3.31,.12,4.96V372.89c0,1.65-.04,3.31-.12,4.96-.08,1.66-.2,3.3-.36,4.95-.17,1.65-.37,3.29-.61,4.92-.24,1.64-.53,3.27-.85,4.89-.32,1.63-.69,3.24-1.09,4.84s-.84,3.2-1.32,4.78-1,3.16-1.56,4.71-1.15,3.1-1.79,4.63c-.63,1.53-1.3,3.04-2.01,4.54s-1.45,2.97-2.23,4.43c-.78,1.46-1.6,2.9-2.45,4.32-.85,1.42-1.73,2.82-2.66,4.19-.92,1.38-1.87,2.73-2.85,4.06-.99,1.33-2.01,2.64-3.06,3.92-1.05,1.28-2.13,2.53-3.24,3.76-1.11,1.23-2.25,2.43-3.42,3.59-1.17,1.17-2.37,2.31-3.59,3.42-1.23,1.11-2.48,2.19-3.76,3.24-1.28,1.05-2.58,2.07-3.91,3.05s-2.68,1.94-4.06,2.86c-1.38,.92-2.78,1.8-4.19,2.65-1.42,.85-2.86,1.67-4.32,2.45s-2.94,1.53-4.43,2.23c-1.49,.71-3.01,1.38-4.54,2.02-1.53,.63-3.07,1.22-4.63,1.79-1.56,.56-3.13,1.07-4.71,1.55-1.58,.48-3.18,.92-4.79,1.33-1.6,.4-3.22,.76-4.84,1.08-1.63,.32-3.26,.61-4.89,.85-1.64,.24-3.28,.45-4.93,.61s-3.3,.28-4.95,.36-3.31,.12-4.96,.12H101.11c-1.66,0-3.31-.04-4.96-.12s-3.3-.2-4.95-.36-3.29-.36-4.93-.61c-1.64-.24-3.27-.53-4.89-.85-1.62-.32-3.23-.68-4.84-1.08-1.61-.41-3.2-.84-4.79-1.33-1.58-.48-3.15-.99-4.71-1.55-1.56-.56-3.1-1.16-4.63-1.79-1.53-.64-3.04-1.31-4.54-2.02-1.49-.7-2.97-1.45-4.43-2.23s-2.9-1.59-4.32-2.45c-1.42-.85-2.82-1.73-4.19-2.65-1.38-.92-2.73-1.88-4.06-2.86s-2.64-2.01-3.91-3.05c-1.28-1.05-2.53-2.13-3.76-3.24-1.22-1.11-2.42-2.25-3.59-3.42-1.17-1.17-2.31-2.36-3.42-3.59-1.11-1.22-2.19-2.48-3.24-3.76-1.05-1.28-2.07-2.58-3.06-3.92-.98-1.33-1.94-2.68-2.85-4.06-.92-1.38-1.81-2.77-2.66-4.19-.85-1.42-1.67-2.86-2.45-4.32-.78-1.46-1.52-2.94-2.23-4.43s-1.38-3.01-2.01-4.54c-.64-1.53-1.23-3.07-1.79-4.63-.56-1.56-1.08-3.13-1.56-4.71s-.92-3.18-1.32-4.78c-.4-1.6-.77-3.22-1.09-4.84-.32-1.62-.6-3.25-.85-4.89-.24-1.64-.44-3.28-.61-4.92-.16-1.65-.28-3.3-.36-4.95-.08-1.65-.12-3.31-.12-4.96V101.11c0-1.66,.04-3.31,.12-4.96,.08-1.65,.2-3.3,.36-4.95,.17-1.65,.37-3.29,.61-4.93,.24-1.64,.53-3.27,.85-4.89,.32-1.63,.69-3.24,1.09-4.84,.4-1.6,.84-3.2,1.32-4.78,.48-1.59,1-3.16,1.56-4.71,.56-1.56,1.15-3.1,1.79-4.63,.63-1.53,1.3-3.04,2.01-4.54,.71-1.5,1.45-2.97,2.23-4.44,.78-1.46,1.6-2.9,2.45-4.32,.85-1.42,1.73-2.81,2.66-4.19,.92-1.38,1.87-2.72,2.85-4.06,.99-1.33,2.01-2.63,3.06-3.91,1.05-1.28,2.13-2.53,3.24-3.76,1.11-1.23,2.25-2.43,3.42-3.6,1.17-1.17,2.37-2.31,3.59-3.42,1.23-1.11,2.48-2.19,3.76-3.24,1.28-1.05,2.58-2.07,3.91-3.05s2.68-1.94,4.06-2.86c1.38-.92,2.78-1.8,4.19-2.66,1.42-.85,2.86-1.67,4.32-2.44,1.46-.78,2.94-1.53,4.43-2.23s3.01-1.38,4.54-2.01c1.53-.63,3.07-1.23,4.63-1.79,1.56-.56,3.13-1.07,4.71-1.56,1.58-.48,3.18-.92,4.79-1.32,1.6-.4,3.22-.77,4.84-1.09,1.63-.32,3.26-.6,4.89-.85,1.64-.24,3.28-.44,4.93-.6,1.65-.16,3.3-.29,4.95-.36,1.65-.08,3.31-.13,4.96-.13Z"/></g><g class="cls-1"><path class="cls-2" d="M105.01,112.2c-10.73,4.55-12.9,13.57-12.9,22.87-.07,75.46-.04,126.23-.07,201.69,0,7.65,3.1,15.7,10.01,19.11,26.39,12.98,24.66,12.13,55.02,25.28V88.75c-13.97,5.31-41.29,18.94-52.05,23.49v-.04Zm124.35-23.59h-41.12l-.1,292.68h173.93c14.18,0,19.94-5.75,19.97-19.84v-57.38h-97.9c-14.9,0-20.18-5.27-20.18-20.15v-97.89c0-14.95,5.24-20.25,20.07-20.25h97.72c0-17.77,.55-46.98-.24-64.09-.38-8.44-8.18-13.09-18.59-13.13H229.36v.04Zm67.36,120.82v50.8c0,6.03,4.86,10.89,10.9,10.89h73.85v-72.57h-73.85c-6.04,0-10.9,4.85-10.9,10.88Z"/></g></svg>